# xmcd
#
# Track frame offsets:
# 150
# 17818
# 36019
# 52834
# 72651
# 82680
# 93201
# 102772
# 112466
# 131441
#
# Disc length: 1873 seconds
#
#
# Revision: 0
# Processed by: cddbd v1.5.1PL0 Copyright (c) Steve Scherf et al.
# Submitted via: FreeRIP 2.941 
#
DISCID=7a074f0a
DTITLE=Sergio Bap - Sentimental Blues 4
DYEAR=2004
DGENRE=Blues
TTITLE0=Texas Ranger
TTITLE1=Greatfull Love
TTITLE2=Elvis My Dog
TTITLE3=Last Dance (revisited)
TTITLE4=Highway 040
TTITLE5=Beyond The Fingers
TTITLE6=Kitungo Blues
TTITLE7=Ornitorrinco
TTITLE8=Deep in my Soul
TTITLE9=Acoustic 3
EXTD=
EXTT0=
EXTT1=
EXTT2=
EXTT3=
EXTT4=
EXTT5=
EXTT6=
EXTT7=
EXTT8=
EXTT9=
PLAYORDER=
